<svg width="138" height="84" viewBox="0 0 138 84" fill="none" xmlns="http://www.w3.org/2000/svg">
<path d="M3.97465 36.3318C2.41075 37.8397 1.52728 39.9186 1.52728 42.091V62.2775C1.52728 66.6958 5.109 70.2775 9.52728 70.2775L128.209 70.2775C132.627 70.2775 136.209 66.6958 136.209 62.2775V15.0053C136.209 10.587 132.627 7.00529 128.209 7.00529L119.828 7.00529C118.825 7.00529 118.012 6.19199 118.012 5.18874C118.012 3.09388 116.323 1.39057 114.228 1.37233L101.719 1.26341C99.5682 1.24468 97.8145 2.9832 97.8145 5.13428C97.8145 6.16761 96.9768 7.00529 95.9435 7.00529L71.3162 7.00529C70.3132 7.00529 69.5 6.19213 69.5 5.18905C69.5 3.09403 67.8111 1.39072 65.7161 1.37296L52.7242 1.26276C50.5734 1.24451 48.8201 2.98304 48.8201 5.13395C48.8201 6.16746 47.9822 7.00529 46.9487 7.00529L37.6207 7.00529C35.5495 7.00529 33.5591 7.80855 32.068 9.2461L3.97465 36.3318Z" fill="white" stroke="black" stroke-width="2"/>
<path d="M32.4347 11.4892C33.3743 10.5364 34.6566 10 35.9947 10H129C131.761 10 134 12.2386 134 15V17H27L32.4347 11.4892Z" fill="#E1CEF0"/>
<path d="M4 42H129C131.761 42 134 44.2386 134 47V49H4V42Z" fill="#CAB4DB"/>
<path d="M4 51H134V53C134 55.7614 131.761 58 129 58H4V51Z" fill="#8982D2"/>
<rect x="4" y="49" width="130" height="2" fill="#8DE3A5"/>
<path d="M38.2293 23.5707L42.7293 23.5707C45.4908 23.5707 47.7293 25.8092 47.7293 28.5707L47.7293 40.5706C47.7293 43.3321 45.4908 45.5706 42.7293 45.5706L16.305 45.5706C11.9226 45.5706 9.66048 40.3336 12.6647 37.143L23.9638 25.143C24.9086 24.1396 26.2257 23.5707 27.604 23.5707L38.2293 23.5707Z" fill="white" stroke="black" stroke-width="2"/>
<path d="M54.3008 69.4154L54.3072 70.4154L55.3072 70.409L77.34 70.2688L78.34 70.2624L78.3336 69.2625L78.1112 34.3161L78.0646 26.9951C78.0435 23.6815 75.3402 21.0124 72.0266 21.0334L67.634 21.0614L59.9935 21.11C56.6799 21.1311 54.0108 23.8344 54.0318 27.1481L54.3008 69.4154Z" fill="white" stroke="black" stroke-width="2"/>
<path d="M70.1344 25.0318L67.4038 25.0492L61.9999 25.0836C59.2385 25.1012 57.0142 27.3539 57.0318 30.1153L57.2658 66.8808L75.4001 66.7654L75.2036 35.8867L75.1661 29.9999C75.1486 27.2385 72.8958 25.0142 70.1344 25.0318Z" fill="#F0F3D1"/>
<circle cx="24.3222" cy="70.3287" r="12.6247" fill="white" stroke="black" stroke-width="2"/>
<circle cx="24" cy="70" r="5" fill="black" stroke="black" stroke-width="2"/>
<circle cx="108.965" cy="69.6018" r="12.6247" fill="white" stroke="black" stroke-width="2"/>
<circle cx="109" cy="70" r="5" fill="black" stroke="black" stroke-width="2"/>
</svg>
