<svg width="146" height="94" viewBox="0 0 146 94" fill="none" xmlns="http://www.w3.org/2000/svg">
<path d="M142.479 69.7069L142.479 22.4347C142.479 17.4641 138.45 13.4347 133.479 13.4347L42.8913 13.4346C40.5613 13.4346 38.322 14.3383 36.6446 15.9556L8.55123 43.0413C6.79184 44.7376 5.79794 47.0764 5.79794 49.5204L5.79793 69.7069C5.79793 74.6774 9.82736 78.7069 14.7979 78.7069L133.479 78.7069C138.45 78.7069 142.479 74.6775 142.479 69.7069Z" fill="white" stroke="black" stroke-width="4"/>
<path d="M136.882 2.03329L83.1743 2.03328L22.9616 2.03327C21.3383 2.03327 19.7655 2.59742 18.5123 3.62917L10.2096 10.4649C5.13914 14.6394 8.09101 22.869 14.6588 22.869L136.882 22.869C140.748 22.869 143.882 19.735 143.882 15.869L143.882 9.03329C143.882 5.1673 140.748 2.03329 136.882 2.03329Z" fill="white" stroke="black" stroke-width="4"/>
<circle cx="29.5928" cy="77.7581" r="13.6247" fill="white" stroke="black" stroke-width="4"/>
<circle cx="114.236" cy="77.0312" r="13.6247" fill="white" stroke="black" stroke-width="4"/>
</svg>
