<svg width="220" height="69" viewBox="0 0 220 69" fill="none" xmlns="http://www.w3.org/2000/svg">
<rect y="0.887939" width="220" height="68" rx="12" fill="black"/>
<g filter="url(#filter0_d_17_13)">
<path d="M40.688 42.36C40.688 44.152 40.9653 45.9867 41.52 47.864C42.0747 49.6987 42.8427 51.1707 43.824 52.28H53.424V59H39.408C34.3733 54.9893 31.856 49.4427 31.856 42.36C31.856 35.2773 34.544 29.9227 39.92 26.296H53.424V33.016H43.824C41.7333 35.192 40.688 38.3067 40.688 42.36ZM57.7535 59V26.296H63.8335L65.4335 29.752C67.1402 27.448 69.2948 26.296 71.8975 26.296H74.3935V34.872H66.2655V59H57.7535ZM91.661 33.016H86.861C86.221 33.784 85.6877 34.8507 85.261 36.216C84.877 37.5813 84.685 38.904 84.685 40.184H93.837C93.9223 38.904 93.7517 37.5813 93.325 36.216C92.8983 34.808 92.3437 33.7413 91.661 33.016ZM100.365 52.28V59H84.109C81.1223 56.9947 79.0103 54.52 77.773 51.576C76.5783 48.5893 75.981 45.5813 75.981 42.552C75.981 35.5547 78.6263 30.136 83.917 26.296H94.285C97.1437 28.3867 99.085 30.6053 100.109 32.952C101.133 35.2987 101.645 37.6667 101.645 40.056C101.645 42.4453 101.453 44.4933 101.069 46.2H85.133C85.261 47.1813 85.6237 48.312 86.221 49.592C86.861 50.8293 87.5437 51.7253 88.269 52.28H100.365ZM130.708 59H124.244L123.092 56.696C122.153 57.5493 121.257 58.1467 120.404 58.488C119.593 58.8293 118.356 59 116.692 59H111.124C109.246 57.208 107.753 54.8613 106.644 51.96C105.577 49.0587 105.044 45.816 105.044 42.232C105.044 38.6053 105.577 35.5333 106.644 33.016C107.753 30.4987 109.31 28.2587 111.316 26.296H116.82C119.081 26.296 120.873 26.8933 122.196 28.088V14.2H130.708V59ZM122.196 33.016H116.052C114.473 35.704 113.684 39.0107 113.684 42.936C113.684 46.8187 114.452 49.9333 115.988 52.28H122.196V33.016ZM136.19 59V26.296H144.638V59H136.19ZM136.19 14.2H144.638V22.84H136.19V14.2ZM152.047 44.728V33.016H147.631V26.296H152.047V17.4H160.559V26.296H165.807V33.016H160.559V46.776C160.559 49.3787 161.007 51.2133 161.903 52.28H165.807V59H156.719C154.458 56.9093 153.092 54.648 152.623 52.216C152.239 50.168 152.047 47.672 152.047 44.728ZM172.64 26.296H186.784V33.016H176.8L182.88 42.04C185.61 45.9227 187.125 48.5893 187.424 50.04C187.594 50.7227 187.68 51.4267 187.68 52.152C187.68 55.1813 186.549 57.464 184.288 59H167.968V52.28H179.68L172.832 42.232C172.533 41.7627 172.064 41.1013 171.424 40.248C170.826 39.3947 170.357 38.712 170.016 38.2C169.674 37.6453 169.44 37.24 169.312 36.984C169.184 36.728 169.013 36.408 168.799 36.024C168.586 35.5973 168.437 35.2347 168.352 34.936C168.181 34.1253 168.096 33.464 168.096 32.952C168.096 29.8373 169.61 27.6187 172.64 26.296Z" fill="white"/>
<path d="M41.52 47.864L40.561 48.1474L40.5628 48.1534L41.52 47.864ZM43.824 52.28L43.075 52.9426L43.3735 53.28H43.824V52.28ZM53.424 52.28H54.424V51.28H53.424V52.28ZM53.424 59V60H54.424V59H53.424ZM39.408 59L38.7849 59.7822L39.0584 60H39.408V59ZM39.92 26.296V25.296H39.6142L39.3608 25.467L39.92 26.296ZM53.424 26.296H54.424V25.296H53.424V26.296ZM53.424 33.016V34.016H54.424V33.016H53.424ZM43.824 33.016V32.016H43.398L43.1029 32.3232L43.824 33.016ZM39.688 42.36C39.688 44.2563 39.9816 46.1865 40.561 48.1473L42.479 47.5807C41.949 45.7869 41.688 44.0477 41.688 42.36H39.688ZM40.5628 48.1534C41.1474 50.087 41.9745 51.6985 43.075 52.9426L44.573 51.6174C43.7109 50.6428 43.002 49.3103 42.4772 47.5746L40.5628 48.1534ZM43.824 53.28H53.424V51.28H43.824V53.28ZM52.424 52.28V59H54.424V52.28H52.424ZM53.424 58H39.408V60H53.424V58ZM40.0311 58.2178C35.2606 54.4176 32.856 49.173 32.856 42.36H30.856C30.856 49.7123 33.4861 55.561 38.7849 59.7822L40.0311 58.2178ZM32.856 42.36C32.856 35.5736 35.4075 30.5464 40.4792 27.125L39.3608 25.467C33.6805 29.2989 30.856 34.9811 30.856 42.36H32.856ZM39.92 27.296H53.424V25.296H39.92V27.296ZM52.424 26.296V33.016H54.424V26.296H52.424ZM53.424 32.016H43.824V34.016H53.424V32.016ZM43.1029 32.3232C40.779 34.742 39.688 38.1392 39.688 42.36H41.688C41.688 38.4742 42.6877 35.642 44.5451 33.7088L43.1029 32.3232ZM57.7535 59H56.7535V60H57.7535V59ZM57.7535 26.296V25.296H56.7535V26.296H57.7535ZM63.8335 26.296L64.741 25.8759L64.4725 25.296H63.8335V26.296ZM65.4335 29.752L64.526 30.1721L65.234 31.7013L66.2371 30.3472L65.4335 29.752ZM74.3935 26.296H75.3935V25.296H74.3935V26.296ZM74.3935 34.872V35.872H75.3935V34.872H74.3935ZM66.2655 34.872V33.872H65.2655V34.872H66.2655ZM66.2655 59V60H67.2655V59H66.2655ZM58.7535 59V26.296H56.7535V59H58.7535ZM57.7535 27.296H63.8335V25.296H57.7535V27.296ZM62.926 26.7161L64.526 30.1721L66.341 29.3319L64.741 25.8759L62.926 26.7161ZM66.2371 30.3472C67.7773 28.2679 69.6472 27.296 71.8975 27.296V25.296C68.9425 25.296 66.503 26.6281 64.6299 29.1568L66.2371 30.3472ZM71.8975 27.296H74.3935V25.296H71.8975V27.296ZM73.3935 26.296V34.872H75.3935V26.296H73.3935ZM74.3935 33.872H66.2655V35.872H74.3935V33.872ZM65.2655 34.872V59H67.2655V34.872H65.2655ZM66.2655 58H57.7535V60H66.2655V58ZM91.661 33.016L92.3892 32.3306L92.0931 32.016H91.661V33.016ZM86.861 33.016V32.016H86.3926L86.0928 32.3758L86.861 33.016ZM85.261 36.216L84.3065 35.9177L84.3022 35.9314L84.2983 35.9453L85.261 36.216ZM84.685 40.184H83.685V41.184H84.685V40.184ZM93.837 40.184V41.184H94.7726L94.8348 40.2505L93.837 40.184ZM93.325 36.216L92.3679 36.506L92.3705 36.5143L93.325 36.216ZM100.365 52.28H101.365V51.28H100.365V52.28ZM100.365 59V60H101.365V59H100.365ZM84.109 59L83.5516 59.8302L83.8044 60H84.109V59ZM77.773 51.576L76.8445 51.9474L76.8477 51.9555L76.8511 51.9635L77.773 51.576ZM83.917 26.296V25.296H83.5923L83.3296 25.4867L83.917 26.296ZM94.285 26.296L94.8753 25.4888L94.6117 25.296H94.285V26.296ZM100.109 32.952L99.1925 33.3519L99.1925 33.3519L100.109 32.952ZM101.069 46.2V47.2H101.869L102.045 46.4195L101.069 46.2ZM85.133 46.2V45.2H83.9941L84.1414 46.3293L85.133 46.2ZM86.221 49.592L85.3148 50.0149L85.3234 50.0333L85.3328 50.0514L86.221 49.592ZM88.269 52.28L87.6616 53.0744L87.9305 53.28H88.269V52.28ZM91.661 32.016H86.861V34.016H91.661V32.016ZM86.0928 32.3758C85.341 33.2779 84.7568 34.477 84.3065 35.9177L86.2155 36.5143C86.6186 35.2244 87.101 34.2901 87.6292 33.6562L86.0928 32.3758ZM84.2983 35.9453C83.8922 37.3893 83.685 38.8032 83.685 40.184H85.685C85.685 39.0048 85.8618 37.7734 86.2237 36.4867L84.2983 35.9453ZM84.685 41.184H93.837V39.184H84.685V41.184ZM94.8348 40.2505C94.9292 38.8339 94.7388 37.3874 94.2795 35.9177L92.3705 36.5143C92.7646 37.7752 92.9154 38.9741 92.8392 40.1175L94.8348 40.2505ZM94.282 35.926C93.8303 34.4352 93.2159 33.209 92.3892 32.3306L90.9328 33.7014C91.4714 34.2736 91.9664 35.1808 92.368 36.506L94.282 35.926ZM99.365 52.28V59H101.365V52.28H99.365ZM100.365 58H84.109V60H100.365V58ZM84.6664 58.1698C81.8207 56.2591 79.8473 53.9304 78.6949 51.1885L76.8511 51.9635C78.1734 55.1096 80.424 57.7303 83.5516 59.8302L84.6664 58.1698ZM78.7015 51.2046C77.5511 48.3287 76.981 45.4464 76.981 42.552H74.981C74.981 45.7163 75.6056 48.85 76.8445 51.9474L78.7015 51.2046ZM76.981 42.552C76.981 35.8486 79.4936 30.7422 84.5044 27.1053L83.3296 25.4867C77.7591 29.5298 74.981 35.2608 74.981 42.552H76.981ZM83.917 27.296H94.285V25.296H83.917V27.296ZM93.6947 27.1032C96.4628 29.1276 98.2613 31.218 99.1925 33.3519L101.026 32.5521C99.9087 29.9926 97.8246 27.6457 94.8753 25.4888L93.6947 27.1032ZM99.1925 33.3519C100.165 35.5816 100.645 37.814 100.645 40.056H102.645C102.645 37.5194 102.101 35.0157 101.026 32.5521L99.1925 33.3519ZM100.645 40.056C100.645 42.3963 100.457 44.3666 100.093 45.9805L102.045 46.4195C102.449 44.6201 102.645 42.4944 102.645 40.056H100.645ZM101.069 45.2H85.133V47.2H101.069V45.2ZM84.1414 46.3293C84.287 47.4455 84.691 48.6782 85.3148 50.0149L87.1272 49.1691C86.5563 47.9458 86.235 46.9171 86.1246 46.0707L84.1414 46.3293ZM85.3328 50.0514C86.0083 51.3574 86.7738 52.3955 87.6616 53.0744L88.8765 51.4856C88.3135 51.0552 87.7137 50.3013 87.1092 49.1326L85.3328 50.0514ZM88.269 53.28H100.365V51.28H88.269V53.28ZM130.708 59V60H131.708V59H130.708ZM124.244 59L123.349 59.4472L123.625 60H124.244V59ZM123.092 56.696L123.986 56.2488L123.396 55.0681L122.419 55.9561L123.092 56.696ZM120.404 58.488L120.032 57.5595L120.024 57.5629L120.015 57.5664L120.404 58.488ZM111.124 59L110.433 59.7234L110.723 60H111.124V59ZM106.644 51.96L105.705 52.3051L105.709 52.3171L106.644 51.96ZM106.644 33.016L105.728 32.6127L105.726 32.6193L105.723 32.6258L106.644 33.016ZM111.316 26.296V25.296H110.908L110.616 25.5813L111.316 26.296ZM122.196 28.088L121.525 28.8301L123.196 30.3387V28.088H122.196ZM122.196 14.2V13.2H121.196V14.2H122.196ZM130.708 14.2H131.708V13.2H130.708V14.2ZM122.196 33.016H123.196V32.016H122.196V33.016ZM116.052 33.016V32.016H115.479L115.189 32.5096L116.052 33.016ZM115.988 52.28L115.151 52.8277L115.447 53.28H115.988V52.28ZM122.196 52.28V53.28H123.196V52.28H122.196ZM130.708 58H124.244V60H130.708V58ZM125.138 58.5528L123.986 56.2488L122.197 57.1432L123.349 59.4472L125.138 58.5528ZM122.419 55.9561C121.537 56.7574 120.741 57.2759 120.032 57.5595L120.775 59.4165C121.772 59.0174 122.768 58.3412 123.764 57.4359L122.419 55.9561ZM120.015 57.5664C119.394 57.8282 118.32 58 116.692 58V60C118.391 60 119.792 59.8304 120.792 59.4096L120.015 57.5664ZM116.692 58H111.124V60H116.692V58ZM111.814 58.2766C110.063 56.6053 108.644 54.3925 107.578 51.6029L105.709 52.3171C106.861 55.3302 108.429 57.8107 110.433 59.7234L111.814 58.2766ZM107.582 51.6149C106.562 48.8402 106.044 45.7167 106.044 42.232H104.044C104.044 45.9153 104.592 49.2771 105.705 52.3051L107.582 51.6149ZM106.044 42.232C106.044 38.6979 106.564 35.7669 107.564 33.4061L105.723 32.6258C104.59 35.2998 104.044 38.5128 104.044 42.232H106.044ZM107.559 33.4193C108.615 31.0209 110.099 28.886 112.015 27.0107L110.616 25.5813C108.522 27.6313 106.89 29.9765 105.728 32.6127L107.559 33.4193ZM111.316 27.296H116.82V25.296H111.316V27.296ZM116.82 27.296C118.902 27.296 120.432 27.8425 121.525 28.8301L122.866 27.3459C121.314 25.9442 119.26 25.296 116.82 25.296V27.296ZM123.196 28.088V14.2H121.196V28.088H123.196ZM122.196 15.2H130.708V13.2H122.196V15.2ZM129.708 14.2V59H131.708V14.2H129.708ZM122.196 32.016H116.052V34.016H122.196V32.016ZM115.189 32.5096C113.5 35.3861 112.684 38.8782 112.684 42.936H114.684C114.684 39.1432 115.446 36.0219 116.914 33.5224L115.189 32.5096ZM112.684 42.936C112.684 46.941 113.475 50.2668 115.151 52.8277L116.824 51.7323C115.428 49.5998 114.684 46.6963 114.684 42.936H112.684ZM115.988 53.28H122.196V51.28H115.988V53.28ZM123.196 52.28V33.016H121.196V52.28H123.196ZM136.19 59H135.19V60H136.19V59ZM136.19 26.296V25.296H135.19V26.296H136.19ZM144.638 26.296H145.638V25.296H144.638V26.296ZM144.638 59V60H145.638V59H144.638ZM136.19 14.2V13.2H135.19V14.2H136.19ZM144.638 14.2H145.638V13.2H144.638V14.2ZM144.638 22.84V23.84H145.638V22.84H144.638ZM136.19 22.84H135.19V23.84H136.19V22.84ZM137.19 59V26.296H135.19V59H137.19ZM136.19 27.296H144.638V25.296H136.19V27.296ZM143.638 26.296V59H145.638V26.296H143.638ZM144.638 58H136.19V60H144.638V58ZM136.19 15.2H144.638V13.2H136.19V15.2ZM143.638 14.2V22.84H145.638V14.2H143.638ZM144.638 21.84H136.19V23.84H144.638V21.84ZM137.19 22.84V14.2H135.19V22.84H137.19ZM152.047 33.016H153.047V32.016H152.047V33.016ZM147.631 33.016H146.631V34.016H147.631V33.016ZM147.631 26.296V25.296H146.631V26.296H147.631ZM152.047 26.296V27.296H153.047V26.296H152.047ZM152.047 17.4V16.4H151.047V17.4H152.047ZM160.559 17.4H161.559V16.4H160.559V17.4ZM160.559 26.296H159.559V27.296H160.559V26.296ZM165.807 26.296H166.807V25.296H165.807V26.296ZM165.807 33.016V34.016H166.807V33.016H165.807ZM160.559 33.016V32.016H159.559V33.016H160.559ZM161.903 52.28L161.137 52.9232L161.437 53.28H161.903V52.28ZM165.807 52.28H166.807V51.28H165.807V52.28ZM165.807 59V60H166.807V59H165.807ZM156.719 59L156.04 59.7343L156.328 60H156.719V59ZM152.623 52.216L151.64 52.4003L151.641 52.4055L152.623 52.216ZM153.047 44.728V33.016H151.047V44.728H153.047ZM152.047 32.016H147.631V34.016H152.047V32.016ZM148.631 33.016V26.296H146.631V33.016H148.631ZM147.631 27.296H152.047V25.296H147.631V27.296ZM153.047 26.296V17.4H151.047V26.296H153.047ZM152.047 18.4H160.559V16.4H152.047V18.4ZM159.559 17.4V26.296H161.559V17.4H159.559ZM160.559 27.296H165.807V25.296H160.559V27.296ZM164.807 26.296V33.016H166.807V26.296H164.807ZM165.807 32.016H160.559V34.016H165.807V32.016ZM159.559 33.016V46.776H161.559V33.016H159.559ZM159.559 46.776C159.559 49.4349 160.005 51.5752 161.137 52.9232L162.669 51.6368C162.009 50.8514 161.559 49.3224 161.559 46.776H159.559ZM161.903 53.28H165.807V51.28H161.903V53.28ZM164.807 52.28V59H166.807V52.28H164.807ZM165.807 58H156.719V60H165.807V58ZM157.398 58.2657C155.254 56.284 154.025 54.2029 153.605 52.0265L151.641 52.4055C152.16 55.0931 153.661 57.5347 156.04 59.7343L157.398 58.2657ZM153.606 52.0317C153.237 50.0636 153.047 47.6333 153.047 44.728H151.047C151.047 47.7107 151.241 50.2724 151.64 52.4003L153.606 52.0317ZM172.64 26.296V25.296H172.431L172.239 25.3795L172.64 26.296ZM186.784 26.296H187.784V25.296H186.784V26.296ZM186.784 33.016V34.016H187.784V33.016H186.784ZM176.8 33.016V32.016H174.92L175.97 33.5748L176.8 33.016ZM182.88 42.04L182.05 42.5988L182.056 42.6071L182.062 42.6153L182.88 42.04ZM187.424 50.04L186.444 50.2417L186.448 50.2622L186.453 50.2825L187.424 50.04ZM184.288 59V60H184.595L184.849 59.8272L184.288 59ZM167.968 59H166.968V60H167.968V59ZM167.968 52.28V51.28H166.968V52.28H167.968ZM179.68 52.28V53.28H181.571L180.506 51.7168L179.68 52.28ZM172.832 42.232L171.988 42.7689L171.996 42.7822L172.005 42.7952L172.832 42.232ZM171.424 40.248L170.604 40.8215L170.614 40.8349L170.623 40.848L171.424 40.248ZM170.016 38.2L169.164 38.7241L169.173 38.7396L169.183 38.7547L170.016 38.2ZM169.312 36.984L168.417 37.4312L168.417 37.4312L169.312 36.984ZM168.799 36.024L167.905 36.4712L167.915 36.4906L167.925 36.5096L168.799 36.024ZM168.352 34.936L167.373 35.142L167.38 35.1767L167.39 35.2107L168.352 34.936ZM172.64 27.296H186.784V25.296H172.64V27.296ZM185.784 26.296V33.016H187.784V26.296H185.784ZM186.784 32.016H176.8V34.016H186.784V32.016ZM175.97 33.5748L182.05 42.5988L183.709 41.4812L177.629 32.4572L175.97 33.5748ZM182.062 42.6153C183.417 44.5429 184.459 46.1512 185.194 47.4459C185.943 48.764 186.328 49.679 186.444 50.2417L188.403 49.8383C188.22 48.9504 187.699 47.8067 186.933 46.4581C186.154 45.0861 185.072 43.4198 183.697 41.4647L182.062 42.6153ZM186.453 50.2825C186.604 50.8835 186.68 51.5059 186.68 52.152H188.68C188.68 51.3474 188.585 50.5619 188.394 49.7975L186.453 50.2825ZM186.68 52.152C186.68 54.8921 185.68 56.8454 183.726 58.1728L184.849 59.8272C187.418 58.0826 188.68 55.4706 188.68 52.152H186.68ZM184.288 58H167.968V60H184.288V58ZM168.968 59V52.28H166.968V59H168.968ZM167.968 53.28H179.68V51.28H167.968V53.28ZM180.506 51.7168L173.658 41.6688L172.005 42.7952L178.853 52.8432L180.506 51.7168ZM173.675 41.6951C173.355 41.1927 172.868 40.5069 172.224 39.648L170.623 40.848C171.259 41.6958 171.71 42.3326 171.988 42.7689L173.675 41.6951ZM172.243 39.6745C171.647 38.8238 171.183 38.1482 170.848 37.6453L169.183 38.7547C169.531 39.2758 170.005 39.9655 170.604 40.8215L172.243 39.6745ZM170.867 37.6759C170.527 37.1229 170.313 36.7501 170.206 36.5368L168.417 37.4312C168.566 37.7299 168.821 38.1677 169.164 38.7241L170.867 37.6759ZM170.206 36.5368C170.069 36.2629 169.891 35.9291 169.674 35.5384L167.925 36.5096C168.135 36.8869 168.298 37.1931 168.417 37.4312L170.206 36.5368ZM169.694 35.5768C169.495 35.1794 169.375 34.8779 169.313 34.6613L167.39 35.2107C167.499 35.5914 167.677 36.0152 167.905 36.4712L169.694 35.5768ZM169.33 34.73C169.166 33.951 169.096 33.3657 169.096 32.952H167.096C167.096 33.5623 167.196 34.2996 167.373 35.142L169.33 34.73ZM169.096 32.952C169.096 31.5629 169.431 30.4337 170.057 29.5158C170.687 28.594 171.657 27.8159 173.04 27.2125L172.239 25.3795C170.592 26.0987 169.291 27.0913 168.406 28.3882C167.518 29.689 167.096 31.2265 167.096 32.952H169.096Z" fill="black"/>
</g>
<defs>
<filter id="filter0_d_17_13" x="27.856" y="14.2" width="163.824" height="52.8" filterUnits="userSpaceOnUse" color-interpolation-filters="sRGB">
<feFlood flood-opacity="0" result="BackgroundImageFix"/>
<feColorMatrix in="SourceAlpha" type="matrix" values="0 0 0 0 0 0 0 0 0 0 0 0 0 0 0 0 0 0 127 0" result="hardAlpha"/>
<feOffset dy="4"/>
<feGaussianBlur stdDeviation="2"/>
<feComposite in2="hardAlpha" operator="out"/>
<feColorMatrix type="matrix" values="0 0 0 0 0 0 0 0 0 0 0 0 0 0 0 0 0 0 0.25 0"/>
<feBlend mode="normal" in2="BackgroundImageFix" result="effect1_dropShadow_17_13"/>
<feBlend mode="normal" in="SourceGraphic" in2="effect1_dropShadow_17_13" result="shape"/>
</filter>
</defs>
</svg>
