<svg width="221" height="69" viewBox="0 0 221 69" fill="none" xmlns="http://www.w3.org/2000/svg">
<rect x="0.309998" y="0.887939" width="220" height="68" rx="12" fill="black"/>
<path d="M52.2 14.2V59H43.752V14.2H52.2ZM72.4735 33.016H67.6735C67.0335 33.784 66.5002 34.8507 66.0735 36.216C65.6895 37.5813 65.4975 38.904 65.4975 40.184H74.6495C74.7348 38.904 74.5642 37.5813 74.1375 36.216C73.7108 34.808 73.1562 33.7413 72.4735 33.016ZM81.1775 52.28V59H64.9215C61.9348 56.9947 59.8228 54.52 58.5855 51.576C57.3908 48.5893 56.7935 45.5813 56.7935 42.552C56.7935 35.5547 59.4388 30.136 64.7295 26.296H75.0975C77.9562 28.3867 79.8975 30.6053 80.9215 32.952C81.9455 35.2987 82.4575 37.6667 82.4575 40.056C82.4575 42.4453 82.2655 44.4933 81.8815 46.2H65.9455C66.0735 47.1813 66.4362 48.312 67.0335 49.592C67.6735 50.8293 68.3562 51.7253 69.0815 52.28H81.1775ZM104.744 59H92.9035C90.8555 57.336 89.2342 55.1387 88.0395 52.408C86.8448 49.6773 86.2475 46.648 86.2475 43.32V26.296H94.7595V43.064C94.7595 46.8187 95.4635 49.8907 96.8715 52.28H100.776C102.184 49.7627 102.888 46.712 102.888 43.128V26.296H111.4V43C111.4 46.3707 110.802 49.464 109.608 52.28C108.413 55.096 106.792 57.336 104.744 59ZM131.161 33.016H126.361C125.721 33.784 125.188 34.8507 124.761 36.216C124.377 37.5813 124.185 38.904 124.185 40.184H133.337C133.422 38.904 133.252 37.5813 132.825 36.216C132.398 34.808 131.844 33.7413 131.161 33.016ZM139.865 52.28V59H123.609C120.622 56.9947 118.51 54.52 117.273 51.576C116.078 48.5893 115.481 45.5813 115.481 42.552C115.481 35.5547 118.126 30.136 123.417 26.296H133.785C136.644 28.3867 138.585 30.6053 139.609 32.952C140.633 35.2987 141.145 37.6667 141.145 40.056C141.145 42.4453 140.953 44.4933 140.569 46.2H124.633C124.761 47.1813 125.124 48.312 125.721 49.592C126.361 50.8293 127.044 51.7253 127.769 52.28H139.865ZM153.888 14.2V59H145.44V14.2H153.888ZM162.577 26.296H176.721V33.016H166.737L172.817 42.04C175.548 45.9227 177.062 48.5893 177.361 50.04C177.532 50.7227 177.617 51.4267 177.617 52.152C177.617 55.1813 176.486 57.464 174.225 59H157.905V52.28H169.617L162.769 42.232C162.47 41.7627 162.001 41.1013 161.361 40.248C160.764 39.3947 160.294 38.712 159.953 38.2C159.612 37.6453 159.377 37.24 159.249 36.984C159.121 36.728 158.95 36.408 158.737 36.024C158.524 35.5973 158.374 35.2347 158.289 34.936C158.118 34.1253 158.033 33.464 158.033 32.952C158.033 29.8373 159.548 27.6187 162.577 26.296Z" fill="white"/>
</svg>
