<svg width="221" height="69" viewBox="0 0 221 69" fill="none" xmlns="http://www.w3.org/2000/svg">
<rect x="0.309998" y="0.887939" width="220" height="68" rx="12" fill="black"/>
<path d="M53.752 20.296H60.6L61.56 22.6C62.4987 21.7467 63.3733 21.1493 64.184 20.808C65.0373 20.4667 66.296 20.296 67.96 20.296H73.72C75.512 22.0453 76.92 24.3067 77.944 27.08C78.968 29.8533 79.48 32.904 79.48 36.232C79.48 43.3573 77.3467 48.9467 73.08 53H67.64C65.3787 53 63.5867 52.4027 62.264 51.208V62.6H53.752V20.296ZM62.264 46.28H68.408C69.9867 43.592 70.776 40.328 70.776 36.488C70.776 32.648 69.9653 29.4907 68.344 27.016H62.264V46.28ZM92.5125 8.2V53H84.0645V8.2H92.5125ZM113.426 38.216H106.578C105.682 39.3253 105.234 40.712 105.234 42.376C105.234 44.04 105.703 45.3413 106.642 46.28H113.426V38.216ZM99.666 20.296H115.538C118.098 21.832 119.783 23.6027 120.594 25.608C121.405 27.5707 121.81 30.2587 121.81 33.672V43.272C121.81 46.8133 121.895 50.056 122.066 53H114.77L113.618 50.696C111.954 52.232 109.607 53 106.578 53H102.546C98.9193 50.6107 97.106 47.176 97.106 42.696C97.106 38.1733 98.962 34.6107 102.674 32.008H108.69C110.354 32.008 111.911 32.52 113.362 33.544V30.344C113.362 28.68 112.637 27.5707 111.186 27.016H99.666V20.296ZM127.123 35.016V20.296H135.635V35.08C135.635 38.792 136.381 41.8853 137.875 44.36H141.651C143.059 41.928 143.763 38.8347 143.763 35.08V20.296H152.275V34.568C152.275 37.768 151.848 40.584 150.995 43.016C150.184 45.448 148.84 48.2 146.963 51.272L142.675 58.248C141.907 59.5707 141.096 60.552 140.243 61.192C139.389 61.832 138.28 62.3013 136.915 62.6H126.803V55.88H133.715C134.611 55.624 135.357 55.176 135.955 54.536C136.552 53.896 137.171 52.9787 137.811 51.784L138.195 51.08H133.779C131.731 49.416 130.109 47.176 128.915 44.36C127.72 41.5013 127.123 38.3867 127.123 35.016ZM158.333 44.36H165.501V53H158.333V44.36ZM166.461 8.2L165.501 28.68V37.576H158.333V28.68L157.373 8.2H166.461Z" fill="white"/>
</svg>
