<svg width="102" height="102" viewBox="0 0 102 102" fill="none" xmlns="http://www.w3.org/2000/svg">
<rect width="102" height="102" fill="#002B36"/>
<rect width="102" height="102" fill="#002B36"/>
<mask id="path-2-inside-1_4_5" fill="white">
<path d="M27.9461 41.2798C25.0764 39.6229 21.3431 40.5986 20.2778 43.7364C18.694 48.4015 18.2438 53.4246 19.002 58.4036C20.0668 65.3957 23.4545 71.9034 28.6319 76.9025C33.8092 81.9015 40.4821 85.108 47.6003 86.0172C54.7185 86.9264 61.8777 85.4866 67.951 81.9246C74.0244 78.3625 78.6669 72.8804 81.148 66.3412C83.629 59.802 83.8076 52.5771 81.6557 45.8036C79.5037 39.0301 75.1435 33.0928 69.2612 28.9262C65.0787 25.9636 60.2957 24.0158 55.3121 23.2051C51.976 22.6623 49.3155 25.5758 49.4997 28.9508L49.8014 34.4785C49.9784 37.7214 52.7985 40.1246 55.8304 41.2889C56.9906 41.7344 58.0995 42.3258 59.1274 43.0539C61.7639 44.9214 63.7183 47.5826 64.6828 50.6186C65.6473 53.6546 65.5673 56.8929 64.4552 59.8238C63.3432 62.7548 61.2623 65.2119 58.5402 66.8085C55.818 68.4051 52.6092 69.0504 49.4187 68.6429C46.2282 68.2354 43.2373 66.7982 40.9168 64.5575C38.5963 62.3169 37.0778 59.4 36.6006 56.2661C36.4305 55.1496 36.3961 54.0281 36.493 52.9242C36.7829 49.6232 35.9541 45.9032 33.0843 44.2463L27.9461 41.2798Z"/>
</mask>
<path d="M27.9461 41.2798C25.0764 39.6229 21.3431 40.5986 20.2778 43.7364C18.694 48.4015 18.2438 53.4246 19.002 58.4036C20.0668 65.3957 23.4545 71.9034 28.6319 76.9025C33.8092 81.9015 40.4821 85.108 47.6003 86.0172C54.7185 86.9264 61.8777 85.4866 67.951 81.9246C74.0244 78.3625 78.6669 72.8804 81.148 66.3412C83.629 59.802 83.8076 52.5771 81.6557 45.8036C79.5037 39.0301 75.1435 33.0928 69.2612 28.9262C65.0787 25.9636 60.2957 24.0158 55.3121 23.2051C51.976 22.6623 49.3155 25.5758 49.4997 28.9508L49.8014 34.4785C49.9784 37.7214 52.7985 40.1246 55.8304 41.2889C56.9906 41.7344 58.0995 42.3258 59.1274 43.0539C61.7639 44.9214 63.7183 47.5826 64.6828 50.6186C65.6473 53.6546 65.5673 56.8929 64.4552 59.8238C63.3432 62.7548 61.2623 65.2119 58.5402 66.8085C55.818 68.4051 52.6092 69.0504 49.4187 68.6429C46.2282 68.2354 43.2373 66.7982 40.9168 64.5575C38.5963 62.3169 37.0778 59.4 36.6006 56.2661C36.4305 55.1496 36.3961 54.0281 36.493 52.9242C36.7829 49.6232 35.9541 45.9032 33.0843 44.2463L27.9461 41.2798Z" fill="white" stroke="white" stroke-width="12" mask="url(#path-2-inside-1_4_5)"/>
<path d="M29.2871 32.8694C27.3645 31.5693 27.5832 28.6721 29.6791 27.6752L50.6069 17.7209C52.6873 16.7313 55.0604 18.3586 54.887 20.6557L53.1563 43.5921C52.9829 45.8893 50.3925 47.142 48.4842 45.8515L29.2871 32.8694Z" fill="white"/>
</svg>
