<svg width="102" height="109" viewBox="0 0 102 109" fill="none" xmlns="http://www.w3.org/2000/svg">
<g filter="url(#filter0_d_36_96)">
<rect y="3" width="102" height="102" rx="30" fill="#002B36"/>
<mask id="path-2-inside-1_36_96" fill="white">
<path d="M27.946 41.2798C25.0763 39.6229 21.343 40.5986 20.2777 43.7364C18.6939 48.4014 18.2436 53.4246 19.0019 58.4035C20.0667 65.3956 23.4544 71.9034 28.6317 76.9025C33.809 81.9015 40.482 85.108 47.6002 86.0172C54.7184 86.9264 61.8776 85.4866 67.9509 81.9245C74.0242 78.3625 78.6668 72.8804 81.1478 66.3412C83.6289 59.802 83.8075 52.577 81.6555 45.8036C79.5036 39.0301 75.1433 33.0928 69.2611 28.9261C65.0786 25.9636 60.2956 24.0158 55.312 23.205C51.9758 22.6623 49.3154 25.5757 49.4996 28.9508L49.8013 34.4785C49.9783 37.7214 52.7984 40.1245 55.8303 41.2888C56.9905 41.7344 58.0994 42.3258 59.1273 43.0539C61.7638 44.9214 63.7181 47.5826 64.6827 50.6186C65.6472 53.6545 65.5671 56.8929 64.4551 59.8238C63.3431 62.7548 61.2622 65.2119 58.5401 66.8085C55.8179 68.405 52.6091 69.0504 49.4186 68.6428C46.2281 68.2353 43.2372 66.7982 40.9167 64.5575C38.5961 62.3169 37.0777 59.4 36.6005 56.266C36.4304 55.1495 36.396 54.0281 36.4929 52.9242C36.7828 49.6232 35.9539 45.9032 33.0842 44.2463L27.946 41.2798Z"/>
</mask>
<path d="M27.946 41.2798C25.0763 39.6229 21.343 40.5986 20.2777 43.7364C18.6939 48.4014 18.2436 53.4246 19.0019 58.4035C20.0667 65.3956 23.4544 71.9034 28.6317 76.9025C33.809 81.9015 40.482 85.108 47.6002 86.0172C54.7184 86.9264 61.8776 85.4866 67.9509 81.9245C74.0242 78.3625 78.6668 72.8804 81.1478 66.3412C83.6289 59.802 83.8075 52.577 81.6555 45.8036C79.5036 39.0301 75.1433 33.0928 69.2611 28.9261C65.0786 25.9636 60.2956 24.0158 55.312 23.205C51.9758 22.6623 49.3154 25.5757 49.4996 28.9508L49.8013 34.4785C49.9783 37.7214 52.7984 40.1245 55.8303 41.2888C56.9905 41.7344 58.0994 42.3258 59.1273 43.0539C61.7638 44.9214 63.7181 47.5826 64.6827 50.6186C65.6472 53.6545 65.5671 56.8929 64.4551 59.8238C63.3431 62.7548 61.2622 65.2119 58.5401 66.8085C55.8179 68.405 52.6091 69.0504 49.4186 68.6428C46.2281 68.2353 43.2372 66.7982 40.9167 64.5575C38.5961 62.3169 37.0777 59.4 36.6005 56.266C36.4304 55.1495 36.396 54.0281 36.4929 52.9242C36.7828 49.6232 35.9539 45.9032 33.0842 44.2463L27.946 41.2798Z" fill="white" stroke="white" stroke-width="12" mask="url(#path-2-inside-1_36_96)"/>
<path d="M29.2869 32.8695C27.3644 31.5694 27.583 28.6721 29.6789 27.6752L50.6067 17.7209C52.6871 16.7314 55.0602 18.3587 54.8868 20.6558L53.1561 43.5922C52.9828 45.8893 50.3923 47.142 48.4841 45.8516L29.2869 32.8695Z" fill="white"/>
</g>
<defs>
<filter id="filter0_d_36_96" x="0" y="0" width="102" height="109" filterUnits="userSpaceOnUse" color-interpolation-filters="sRGB">
<feFlood flood-opacity="0" result="BackgroundImageFix"/>
<feColorMatrix in="SourceAlpha" type="matrix" values="0 0 0 0 0 0 0 0 0 0 0 0 0 0 0 0 0 0 127 0" result="hardAlpha"/>
<feOffset dy="4"/>
<feComposite in2="hardAlpha" operator="out"/>
<feColorMatrix type="matrix" values="0 0 0 0 0 0 0 0 0 0 0 0 0 0 0 0 0 0 0.25 0"/>
<feBlend mode="normal" in2="BackgroundImageFix" result="effect1_dropShadow_36_96"/>
<feBlend mode="normal" in="SourceGraphic" in2="effect1_dropShadow_36_96" result="shape"/>
</filter>
</defs>
</svg>
