<svg width="102" height="106" viewBox="0 0 102 106" fill="none" xmlns="http://www.w3.org/2000/svg">
<g filter="url(#filter0_d_36_84)">
<rect width="102" height="102" rx="30" fill="#002B36"/>
<mask id="path-2-inside-1_36_84" fill="white">
<path d="M22.7499 34.2798C31.4483 19.2136 51.1012 14.2753 66.6457 23.25C82.1902 32.2246 87.74 51.7136 79.0415 66.7798C70.343 81.846 50.6902 86.7842 35.1457 77.8096C19.6012 68.8349 14.0514 49.346 22.7499 34.2798ZM63.511 57.8132C67.4098 51.0604 64.9223 42.3251 57.955 38.3026C50.9878 34.28 42.1791 36.4934 38.2803 43.2463C34.3816 49.9992 36.8691 58.7344 43.8363 62.7569C50.8036 66.7795 59.6122 64.5661 63.511 57.8132Z"/>
</mask>
<path d="M22.7499 34.2798C31.4483 19.2136 51.1012 14.2753 66.6457 23.25C82.1902 32.2246 87.74 51.7136 79.0415 66.7798C70.343 81.846 50.6902 86.7842 35.1457 77.8096C19.6012 68.8349 14.0514 49.346 22.7499 34.2798ZM63.511 57.8132C67.4098 51.0604 64.9223 42.3251 57.955 38.3026C50.9878 34.28 42.1791 36.4934 38.2803 43.2463C34.3816 49.9992 36.8691 58.7344 43.8363 62.7569C50.8036 66.7795 59.6122 64.5661 63.511 57.8132Z" fill="white" stroke="white" stroke-width="12" mask="url(#path-2-inside-1_36_84)"/>
<rect x="41" y="13" width="20" height="16" rx="2" fill="white"/>
<rect x="41" y="73" width="20" height="16" rx="2" fill="white"/>
<rect x="13" y="61" width="20" height="16" rx="2" transform="rotate(-90 13 61)" fill="white"/>
<rect x="73" y="61" width="20" height="16" rx="2" transform="rotate(-90 73 61)" fill="white"/>
<rect x="30.1113" y="84.2814" width="20" height="16" rx="2" transform="rotate(-133.142 30.1113 84.2814)" fill="white"/>
<rect x="73.8906" y="43.2527" width="20" height="16" rx="2" transform="rotate(-133.142 73.8906 43.2527)" fill="white"/>
<rect x="16.9858" y="31.3264" width="20" height="16" rx="2" transform="rotate(-45.2114 16.9858 31.3264)" fill="white"/>
<rect x="59.5688" y="73.5959" width="20" height="16" rx="2" transform="rotate(-45.2114 59.5688 73.5959)" fill="white"/>
</g>
<defs>
<filter id="filter0_d_36_84" x="0" y="0" width="102" height="106" filterUnits="userSpaceOnUse" color-interpolation-filters="sRGB">
<feFlood flood-opacity="0" result="BackgroundImageFix"/>
<feColorMatrix in="SourceAlpha" type="matrix" values="0 0 0 0 0 0 0 0 0 0 0 0 0 0 0 0 0 0 127 0" result="hardAlpha"/>
<feOffset dy="4"/>
<feComposite in2="hardAlpha" operator="out"/>
<feColorMatrix type="matrix" values="0 0 0 0 0 0 0 0 0 0 0 0 0 0 0 0 0 0 0.25 0"/>
<feBlend mode="normal" in2="BackgroundImageFix" result="effect1_dropShadow_36_84"/>
<feBlend mode="normal" in="SourceGraphic" in2="effect1_dropShadow_36_84" result="shape"/>
</filter>
</defs>
</svg>
