<svg width="184" height="231" viewBox="0 0 184 231" fill="none" xmlns="http://www.w3.org/2000/svg">
<rect y="69" width="69" height="184" rx="10" transform="rotate(-90 0 69)" fill="#567A84"/>
<rect y="231" width="184" height="184" rx="10" transform="rotate(-90 0 231)" fill="#3D5B63"/>
<path d="M65.8143 132.412L50.109 148.524L65.8143 132.412L62.3404 129.026L67.1412 128.328C76.7497 126.932 85.0559 120.897 89.3529 112.19L91.4999 107.84L93.6469 112.19C97.9439 120.897 106.25 126.932 115.859 128.328L120.659 129.026L117.185 132.412C110.233 139.189 107.06 148.954 108.701 158.523L109.521 163.305L105.227 161.047C96.6334 156.529 86.3664 156.529 77.7723 161.047L73.4783 163.305L74.2984 158.523C75.9397 148.953 72.767 139.189 65.8143 132.412Z" stroke="#FDF6E3" stroke-width="45"/>
</svg>
