<svg width="184" height="231" viewBox="0 0 184 231" fill="none" xmlns="http://www.w3.org/2000/svg">
<rect y="69" width="69" height="184" rx="10" transform="rotate(-90 0 69)" fill="#567A84"/>
<rect y="231" width="184" height="184" rx="10" transform="rotate(-90 0 231)" fill="#3D5B63"/>
<path d="M91.5 72.8169L107.546 105.33C109.586 109.462 113.528 112.326 118.088 112.989L153.968 118.203L128.005 143.511C124.705 146.727 123.199 151.361 123.978 155.903L130.108 191.639L98.0148 174.767C93.9362 172.622 89.0638 172.622 84.9852 174.767L52.8924 191.639L59.0216 155.903C59.8005 151.361 58.2948 146.727 54.9953 143.511L50.1092 148.524L54.9952 143.511L29.0316 118.203L64.9125 112.989C69.4724 112.326 73.4143 109.462 75.4536 105.33L91.5 72.8169Z" stroke="#FDF6E3" stroke-width="14"/>
</svg>
