<svg width="102" height="102" viewBox="0 0 102 102" fill="none" xmlns="http://www.w3.org/2000/svg">
<rect width="102" height="102" fill="#002B36"/>
<mask id="path-2-inside-1_7_28" fill="white">
<path d="M22.75 34.2798C31.4485 19.2136 51.1013 14.2754 66.6458 23.25C82.1903 32.2246 87.7401 51.7136 79.0416 66.7798C70.3431 81.846 50.6903 86.7842 35.1458 77.8096C19.6013 68.835 14.0515 49.346 22.75 34.2798ZM63.5111 57.8133C67.4099 51.0604 64.9224 42.3252 57.9552 38.3026C50.9879 34.2801 42.1792 36.4935 38.2805 43.2463C34.3817 49.9992 36.8692 58.7344 43.8364 62.757C50.8037 66.7795 59.6124 64.5661 63.5111 57.8133Z"/>
</mask>
<path d="M22.75 34.2798C31.4485 19.2136 51.1013 14.2754 66.6458 23.25C82.1903 32.2246 87.7401 51.7136 79.0416 66.7798C70.3431 81.846 50.6903 86.7842 35.1458 77.8096C19.6013 68.835 14.0515 49.346 22.75 34.2798ZM63.5111 57.8133C67.4099 51.0604 64.9224 42.3252 57.9552 38.3026C50.9879 34.2801 42.1792 36.4935 38.2805 43.2463C34.3817 49.9992 36.8692 58.7344 43.8364 62.757C50.8037 66.7795 59.6124 64.5661 63.5111 57.8133Z" fill="white" stroke="white" stroke-width="12" mask="url(#path-2-inside-1_7_28)"/>
<rect x="41" y="13" width="20" height="16" rx="2" fill="white"/>
<rect x="41" y="73" width="20" height="16" rx="2" fill="white"/>
<rect x="13" y="61" width="20" height="16" rx="2" transform="rotate(-90 13 61)" fill="white"/>
<rect x="73" y="61" width="20" height="16" rx="2" transform="rotate(-90 73 61)" fill="white"/>
<rect x="30.1111" y="84.2814" width="20" height="16" rx="2" transform="rotate(-133.142 30.1111 84.2814)" fill="white"/>
<rect x="73.8906" y="43.2527" width="20" height="16" rx="2" transform="rotate(-133.142 73.8906 43.2527)" fill="white"/>
<rect x="16.9861" y="31.3264" width="20" height="16" rx="2" transform="rotate(-45.2114 16.9861 31.3264)" fill="white"/>
<rect x="59.5687" y="73.5959" width="20" height="16" rx="2" transform="rotate(-45.2114 59.5687 73.5959)" fill="white"/>
</svg>
