<svg width="1080" height="720" viewBox="0 0 1080 720" fill="none" xmlns="http://www.w3.org/2000/svg">
<g clip-path="url(#clip0_0_3)">
<rect width="1080" height="720" fill="white"/>
<g filter="url(#filter0_d_0_3)">
<path d="M1523.69 968.98C1485.36 948.313 1368.49 850.18 1127.69 690.98C886.89 531.78 729.69 627.98 624.69 703.98C519.69 779.98 412.09 885.18 289.69 749.98C212.737 664.98 89.4899 581.58 -51.3101 667.98" stroke="#FDF6E3" stroke-width="404"/>
</g>
<g filter="url(#filter1_d_0_3)">
<path d="M1618.1 197.44C1576.77 183.72 1219.68 171.963 954.965 56.8434C690.244 -58.2758 669.668 -35.5444 596.858 56.8434C524.048 149.231 508.777 307.302 364.824 195.328C274.321 124.93 -78.4215 85.8623 -202.142 195.328" stroke="#567A84" stroke-width="602"/>
</g>
<g filter="url(#filter2_d_0_3)">
<path d="M1552 713C1513.08 692.339 1394.43 594.23 1149.97 435.07C905.496 275.91 745.901 372.086 639.301 448.067C532.701 524.048 423.461 629.221 299.196 494.055C221.071 409.077 95.9455 325.698 -47 412.076" stroke="#0B040A" stroke-width="116"/>
</g>
<g filter="url(#filter3_d_0_3)">
<path d="M1551.69 709.98C1513.36 689.313 1396.49 591.18 1155.69 431.98C914.89 272.78 757.69 372.98 652.69 448.98C547.69 524.98 440.09 630.18 317.69 494.98C240.737 409.98 117.49 322.58 -23.3101 408.98" stroke="#FFC224" stroke-width="12" stroke-dasharray="24 24"/>
</g>
</g>
<defs>
<filter id="filter0_d_0_3" x="-164.959" y="402.865" width="1794.18" height="759.921" filterUnits="userSpaceOnUse" color-interpolation-filters="sRGB">
<feFlood flood-opacity="0" result="BackgroundImageFix"/>
<feColorMatrix in="SourceAlpha" type="matrix" values="0 0 0 0 0 0 0 0 0 0 0 0 0 0 0 0 0 0 127 0" result="hardAlpha"/>
<feOffset dy="8"/>
<feGaussianBlur stdDeviation="4"/>
<feComposite in2="hardAlpha" operator="out"/>
<feColorMatrix type="matrix" values="0 0 0 0 0 0 0 0 0 0 0 0 0 0 0 0 0 0 0.25 0"/>
<feBlend mode="normal" in2="BackgroundImageFix" result="effect1_dropShadow_0_3"/>
<feBlend mode="normal" in="SourceGraphic" in2="effect1_dropShadow_0_3" result="shape"/>
</filter>
<filter id="filter1_d_0_3" x="-409.598" y="-322.197" width="2130.53" height="873.137" filterUnits="userSpaceOnUse" color-interpolation-filters="sRGB">
<feFlood flood-opacity="0" result="BackgroundImageFix"/>
<feColorMatrix in="SourceAlpha" type="matrix" values="0 0 0 0 0 0 0 0 0 0 0 0 0 0 0 0 0 0 127 0" result="hardAlpha"/>
<feOffset dy="8"/>
<feGaussianBlur stdDeviation="4"/>
<feComposite in2="hardAlpha" operator="out"/>
<feColorMatrix type="matrix" values="0 0 0 0 0 0 0 0 0 0 0 0 0 0 0 0 0 0 0.25 0"/>
<feBlend mode="normal" in2="BackgroundImageFix" result="effect1_dropShadow_0_3"/>
<feBlend mode="normal" in="SourceGraphic" in2="effect1_dropShadow_0_3" result="shape"/>
</filter>
<filter id="filter2_d_0_3" x="-84.9966" y="290.994" width="1672.19" height="489.234" filterUnits="userSpaceOnUse" color-interpolation-filters="sRGB">
<feFlood flood-opacity="0" result="BackgroundImageFix"/>
<feColorMatrix in="SourceAlpha" type="matrix" values="0 0 0 0 0 0 0 0 0 0 0 0 0 0 0 0 0 0 127 0" result="hardAlpha"/>
<feOffset dy="8"/>
<feGaussianBlur stdDeviation="4"/>
<feComposite in2="hardAlpha" operator="out"/>
<feColorMatrix type="matrix" values="0 0 0 0 0 0 0 0 0 0 0 0 0 0 0 0 0 0 0.25 0"/>
<feBlend mode="normal" in2="BackgroundImageFix" result="effect1_dropShadow_0_3"/>
<feBlend mode="normal" in="SourceGraphic" in2="effect1_dropShadow_0_3" result="shape"/>
</filter>
<filter id="filter3_d_0_3" x="-34.4482" y="341.272" width="1596.99" height="389.989" filterUnits="userSpaceOnUse" color-interpolation-filters="sRGB">
<feFlood flood-opacity="0" result="BackgroundImageFix"/>
<feColorMatrix in="SourceAlpha" type="matrix" values="0 0 0 0 0 0 0 0 0 0 0 0 0 0 0 0 0 0 127 0" result="hardAlpha"/>
<feOffset dy="8"/>
<feGaussianBlur stdDeviation="4"/>
<feComposite in2="hardAlpha" operator="out"/>
<feColorMatrix type="matrix" values="0 0 0 0 0 0 0 0 0 0 0 0 0 0 0 0 0 0 0.25 0"/>
<feBlend mode="normal" in2="BackgroundImageFix" result="effect1_dropShadow_0_3"/>
<feBlend mode="normal" in="SourceGraphic" in2="effect1_dropShadow_0_3" result="shape"/>
</filter>
<clipPath id="clip0_0_3">
<rect width="1080" height="720" fill="white"/>
</clipPath>
</defs>
</svg>
